/* XPM */
static char * bpawn_xpm[] = {
"64 64 2 1",
" 	c None",
".	c #040404",
"                                                                ",
"                                                                ",
"                                                                ",
"                                                                ",
"                                                                ",
"                                                                ",
"                           ..........                           ",
"                           ..........                           ",
"                         ..............                         ",
"                         ..............                         ",
"                         ..............                         ",
"                         ..............                         ",
"                         ..............                         ",
"                         ..............                         ",
"                         ..............                         ",
"                         ..............                         ",
"                           ..........                           ",
"                           ..........                           ",
"                         ..............                         ",
"                         ..............                         ",
"                       ..................                       ",
"                       ..................                       ",
"                     ......................                     ",
"                     ......................                     ",
"                     ......................                     ",
"                     ......................                     ",
"                     ......................                     ",
"                     ......................                     ",
"                     ......................                     ",
"                     ......................                     ",
"                       ..................                       ",
"                       ..................                       ",
"                         ..............                         ",
"                         ..............                         ",
"                     ......................                     ",
"                     ......................                     ",
"                   ..........................                   ",
"                   ..........................                   ",
"                 ..............................                 ",
"                 ..............................                 ",
"               ..................................               ",
"               ..................................               ",
"               ..................................               ",
"               ..................................               ",
"             ......................................             ",
"             ......................................             ",
"             ......................................             ",
"             ......................................             ",
"             ......................................             ",
"             ......................................             ",
"             ......................................             ",
"             ......................................             ",
"             ......................................             ",
"             ......................................             ",
"             ......................................             ",
"             ......................................             ",
"                                                                ",
"                                                                ",
"                                                                ",
"                                                                ",
"                                                                ",
"                                                                ",
"                                                                ",
"                                                                "};
