/* XPM */
static char * wbishop_xpm[] = {
"64 64 4 1",
" 	c None",
".	c #040404",
"+	c #04FA04",
"@	c #FAFAFA",
"                                                                ",
"                                                                ",
"                                                                ",
"                                                                ",
"                             ......                             ",
"                             ......                             ",
"                           ..........                           ",
"                           ..........                           ",
"                           ....@@....                           ",
"                           ....@@....                           ",
"                             ......                             ",
"                             ......                             ",
"                           ..........                           ",
"                           ..........                           ",
"                       ......@@@@@@......                       ",
"                       ......@@@@@@......                       ",
"                     ......@@@@@@@@@@......                     ",
"                     ......@@@@@@@@@@......                     ",
"                   ......@@@@@@@@@@@@@@......                   ",
"                   ......@@@@@@@@@@@@@@......                   ",
"                   ....@@@@@@@@..@@@@@@@@....                   ",
"                   ....@@@@@@@@..@@@@@@@@....                   ",
"                 ....@@@@@@@@@@..@@@@@@@@@@....                 ",
"                 ....@@@@@@@@@@..@@@@@@@@@@....                 ",
"                 ....@@@@@@@@@@..@@@@@@@@@@....                 ",
"                 ....@@@@@@@@@@..@@@@@@@@@@....                 ",
"               ....@@@@@@..............@@@@@@....               ",
"               ....@@@@@@..............@@@@@@....               ",
"               ....@@@@@@@@@@@@..@@@@@@@@@@@@....               ",
"               ....@@@@@@@@@@@@..@@@@@@@@@@@@....               ",
"               ....@@@@@@@@@@@@..@@@@@@@@@@@@....               ",
"               ....@@@@@@@@@@@@..@@@@@@@@@@@@....               ",
"                 ....@@@@@@@@@@..@@@@@@@@@@....                 ",
"                 ....@@@@@@@@@@..@@@@@@@@@@....                 ",
"                 ....@@@@@@@@@@@@@@@@@@@@@@....                 ",
"                 ....@@@@@@@@@@@@@@@@@@@@@@....                 ",
"                   ....@@@@@@@@@@@@@@@@@@....                   ",
"                   ....@@@@@@@@@@@@@@@@@@....                   ",
"                   ......@@..........@@......                   ",
"                   ......@@..........@@......                   ",
"                     ........@@@@@@........                     ",
"                     ........@@@@@@........                     ",
"                       ..@@@@@@@@@@@@@@..                       ",
"                       ..@@@@@@@@@@@@@@..                       ",
"                     ..@@..............@@..                     ",
"                     ..@@..............@@..                     ",
"                   ........@@@@@@@@@@........                   ",
"                   ........@@@@@@@@@@........                   ",
"                 ........@@@@@@@@@@@@@@........                 ",
"                 ........@@@@@@@@@@@@@@........                 ",
"                     ......@@@@@@@@@@......                     ",
"                     ......@@@@@@@@@@......                     ",
"                       ..................                       ",
"                       ..................                       ",
"     ....................@@@@......@@@@....................     ",
"     ....................@@@@......@@@@....................     ",
"   ....@@@@@@@@@@@@@@@@@@@@....  ....@@@@@@@@@@@@@@@@@@@@....   ",
"   ....@@@@@@@@@@@@@@@@@@@@....  ....@@@@@@@@@@@@@@@@@@@@....   ",
"     ........................      ........................     ",
"     ........................      ........................     ",
"       ....................          ....................       ",
"       ....................          ....................       ",
"                                                                ",
"                                                                "};
