/* XPM */
static char * wpawn_xpm[] = {
"64 64 3 1",
" 	c None",
".	c #040404",
"+	c #FAFAFA",
"                                                                ",
"                                                                ",
"                                                                ",
"                                                                ",
"                                                                ",
"                                                                ",
"                                                                ",
"                           ..........                           ",
"                           ..........                           ",
"                         ....++++++....                         ",
"                         ....++++++....                         ",
"                         ..++++++++++..                         ",
"                         ..++++++++++..                         ",
"                         ..++++++++++..                         ",
"                         ..++++++++++..                         ",
"                         ....++++++....                         ",
"                         ....++++++....                         ",
"                           ....++....                           ",
"                           ....++....                           ",
"                         ....++++++....                         ",
"                         ....++++++....                         ",
"                       ....++++++++++....                       ",
"                       ....++++++++++....                       ",
"                     ....++++++++++++++....                     ",
"                     ....++++++++++++++....                     ",
"                     ....++++++++++++++....                     ",
"                     ....++++++++++++++....                     ",
"                     ....++++++++++++++....                     ",
"                     ....++++++++++++++....                     ",
"                     ....++++++++++++++....                     ",
"                     ....++++++++++++++....                     ",
"                       ....++++++++++....                       ",
"                       ....++++++++++....                       ",
"                         ....++++++....                         ",
"                         ....++++++....                         ",
"                     ......++++++++++......                     ",
"                     ......++++++++++......                     ",
"                   ....++++++++++++++++++....                   ",
"                   ....++++++++++++++++++....                   ",
"                 ....++++++++++++++++++++++....                 ",
"                 ....++++++++++++++++++++++....                 ",
"               ....++++++++++++++++++++++++++....               ",
"               ....++++++++++++++++++++++++++....               ",
"               ....++++++++++++++++++++++++++....               ",
"               ....++++++++++++++++++++++++++....               ",
"             ....++++++++++++++++++++++++++++++....             ",
"             ....++++++++++++++++++++++++++++++....             ",
"             ....++++++++++++++++++++++++++++++....             ",
"             ....++++++++++++++++++++++++++++++....             ",
"             ....++++++++++++++++++++++++++++++....             ",
"             ....++++++++++++++++++++++++++++++....             ",
"             ....++++++++++++++++++++++++++++++....             ",
"             ....++++++++++++++++++++++++++++++....             ",
"             ......................................             ",
"             ......................................             ",
"             ......................................             ",
"             ......................................             ",
"                                                                ",
"                                                                ",
"                                                                ",
"                                                                ",
"                                                                ",
"                                                                ",
"                                                                "};
